<svg xmlns="http://www.w3.org/2000/svg" width="1920" height="1260" viewBox="0 0 1920 1260">
  <defs>
    <style>
      .cls-1 {
        fill-rule: evenodd;
      }
    </style>
  </defs>
  <path id="Color_Fill_1" data-name="Color Fill 1" class="cls-1" d="M0,0H1920V794l-176-2,3-3q9.495-13.5,19-27c-7.06-96.679-66.06-115.241-148-82l-6-5c0.93-17.089,9.68-48.988-4-57l-86-7c-35.43-5.563-77.8,1.872-117-4-32.65-4.891-77.9-2.937-110,2l-97,3c-41.27,6.35-139.82-8.855-162,13-0.48,62.327,3.87,128.857,15,179l-78,4-13-16H903c-15.745,3.522-32.736,15.131-53,12l-80-4c-14.015-3.481-43.633-11.242-66-6-42.643,10-107.716,6-160,6H485l-43-14-33,12-123,2-33-12-39,10-84,2c-27.3,4.322-39.834-8.974-57-12L0,802V0ZM1683,690c54.4,5.675,68.52,75.76,26,104-11.2,7.441-89.17-1.5-109-2,3.78-28.038,11.54-23.541,22-40q5.505-17,11-34C1643.68,698.681,1661.36,699.124,1683,690Z"/>
</svg>
